<?xml version="1.0" encoding="UTF-8"?>
<svg width="21px" height="18px" viewBox="0 0 21 18" version="1.1" xmlns="http://www.w3.org/2000/svg" xmlns:xlink="http://www.w3.org/1999/xlink">
    <!-- Generator: Sketch 52.1 (67048) - http://www.bohemiancoding.com/sketch -->
    <title>sketch</title>
    <desc>Created with Sketch.</desc>
    <g id="Page-1" stroke="none" stroke-width="1" fill="none" fill-rule="evenodd">
        <g id="sketch" transform="translate(1.000000, 1.000000)" fill="#909CA8" fill-rule="nonzero" stroke="#909CA8" stroke-width="0.3">
            <path d="M3.32220227,0.192161318 L0.081976109,4.74078535 C-0.0351580628,4.90296653 -0.0257614073,5.14229237 0.103731918,5.29512618 L9.36152091,16.211826 C9.53464164,16.4142398 9.89717664,16.4142398 10.0702973,16.211826 L19.3280863,5.29512618 C19.4575795,5.14229237 19.4669763,4.90296653 19.3498421,4.74078535 L16.109616,0.192161318 C16.0247914,0.0745339087 15.880231,0.000777972348 15.7335183,0.000254872348 L3.69839253,0.000254872348 C3.54175074,-0.00588576492 3.396172,0.100097172 3.32220227,0.192161318 Z M4.37816883,0.909979681 L8.67436155,0.909979681 L5.6728012,4.18639905 L4.37816883,0.909979681 Z M10.7573641,0.909979681 L15.0535568,0.909979681 L13.7589244,4.18639905 L10.7573641,0.909979681 Z M9.71586282,1.13031503 L12.8403666,4.54887889 L6.58413795,4.54887889 L9.71586282,1.13031503 Z M3.57535651,1.40748544 L4.81937191,4.54887889 L1.34045681,4.54887889 L3.57535651,1.40748544 Z M15.8563691,1.40748544 L18.0912688,4.54887889 L14.6123537,4.54887889 L15.8563691,1.40748544 Z M1.44893495,5.45860371 L5.18098115,5.45860371 L8.43569573,13.6958912 L1.44893495,5.45860371 Z M6.17910967,5.45860371 L13.2598602,5.45860371 L9.71586282,14.4279239 L6.17910967,5.45860371 Z M14.2507445,5.45860371 L17.9827907,5.45860371 L10.9960298,13.702987 L14.2507445,5.45860371 Z" id="diamond-icon"></path>
        </g>
    </g>
</svg>