<?xml version="1.0" encoding="UTF-8"?>
<svg width="13px" height="15px" viewBox="0 0 13 15" version="1.1" xmlns="http://www.w3.org/2000/svg" xmlns:xlink="http://www.w3.org/1999/xlink">
    <!-- Generator: Sketch 52.3 (67297) - http://www.bohemiancoding.com/sketch -->
    <title>copy</title>
    <desc>Created with Sketch.</desc>
    <g id="Page-1" stroke="none" stroke-width="1" fill="none" fill-rule="evenodd">
        <g id="copy" fill="#FFFFFF" fill-rule="nonzero">
            <path d="M11.6921598,3.43768212 L9.96145103,3.43768212 L9.96145103,1.29966887 C9.96145103,0.598377483 9.373,0.0168211921 8.66342784,0.0168211921 L1.30784021,0.0168211921 C0.598234536,0.0168211921 0.00978350515,0.598377483 0.00978350515,1.29966887 L0.00978350515,10.2794702 C0.00978350515,10.9807285 0.598234536,11.5622848 1.30784021,11.5622848 L3.03854897,11.5622848 L3.03854897,13.7003311 C3.03854897,14.4016225 3.62696649,14.9831457 4.33657216,14.9831457 L11.6921263,14.9831457 C12.401732,14.9831457 12.9901495,14.4016225 12.9901495,13.7003311 L12.9901495,4.7205298 C12.990183,4.01923841 12.4017655,3.43768212 11.6921598,3.43768212 Z M3.03854897,4.72056291 L3.03854897,10.2795033 L1.30784021,10.2795033 L1.30784021,1.29966887 L8.66339433,1.29966887 L8.66339433,3.43768212 L4.33660567,3.43768212 C3.627,3.43768212 3.03854897,4.01923841 3.03854897,4.72056291 Z M11.6921598,13.7003642 L4.33660567,13.7003642 L4.33660567,4.72056291 L11.6921598,4.72056291 L11.6921598,13.7003642 Z" id="Shape"></path>
        </g>
    </g>
</svg>