<svg xmlns="http://www.w3.org/2000/svg" width="612" height="523"><path fill="#909CA8" d="M500.422 261.817c0-13.771-11.163-24.932-24.933-24.932H202.038L303.39 142.39c10.39-9.037 11.488-24.785 2.452-35.175-9.036-10.39-24.785-11.488-35.175-2.452-.451.392-.888.8-1.31 1.225L121.692 243.556c-10.069 9.393-10.617 25.168-1.225 35.238.394.422.803.831 1.225 1.225l147.665 137.629c10.069 9.398 25.851 8.854 35.249-1.215 9.397-10.07 8.854-25.852-1.216-35.248L202.038 286.75h273.451c13.77 0 24.933-11.161 24.933-24.933z"/></svg>
