<?xml version="1.0" encoding="UTF-8"?>
<svg width="99px" height="22px" viewBox="0 0 99 22" version="1.1" xmlns="http://www.w3.org/2000/svg" xmlns:xlink="http://www.w3.org/1999/xlink">
    <g stroke="none" stroke-width="1" fill="none" fill-rule="evenodd">
        <g transform="translate(-455.000000, -413.000000)" fill-rule="nonzero">
            <g id="Main">
                <g id="logos" transform="translate(455.000000, 413.000000)">
                    <g id="colorspark-logo">
                        <g id="Group" transform="translate(25.085715, 3.873530)" fill="#262126">
                            <path d="M4.14407705,4.59820237 C3.80031181,4.59820237 3.51194525,4.67818735 3.27952766,4.83778357 C3.0467432,4.99775354 2.85725041,5.20388308 2.71068242,5.4557984 C2.56411442,5.70864815 2.46047122,5.98672678 2.39975282,6.29022123 C2.33903441,6.59427631 2.30876693,6.89571505 2.30876693,7.19416372 C2.30876693,7.48270769 2.33903441,7.77629743 2.39975282,8.07511987 C2.46047122,8.37431605 2.55897812,8.64435881 2.69545696,8.88655635 C2.83211923,9.12894076 3.01647572,9.32666064 3.24926018,9.48139797 C3.48149432,9.63576152 3.76490803,9.7129433 4.09840066,9.7129433 C4.61423195,9.7129433 5.01101114,9.56642875 5.28910511,9.27265211 C5.56719908,8.97924924 5.74183328,8.5851176 5.81264085,8.09063098 L7.89045771,8.09063098 C7.74884258,9.15211397 7.34454238,9.96074725 6.67700679,10.5169045 C6.00965465,11.0730618 5.15519443,11.3511405 4.11380956,11.3511405 C3.52717071,11.3511405 2.98877639,11.2507855 2.49844316,11.0498886 C2.00774305,10.8491786 1.59078554,10.5684836 1.24683687,10.2078037 C0.902888196,9.84712371 0.635066829,9.41748473 0.44300589,8.91757857 C0.250944952,8.41748551 0.155006202,7.86936409 0.155006202,7.27190614 C0.155006202,6.65351754 0.243057062,6.07941967 0.420259418,5.54867816 C0.597094896,5.01812355 0.857578691,4.55970491 1.20152736,4.17360915 C1.54510916,3.78695276 1.9650017,3.48570088 2.46047122,3.26947979 C2.95575731,3.05307182 3.52221785,2.9450547 4.15930251,2.9450547 C4.62432111,2.9450547 5.07154611,3.00691226 5.50171125,3.13062734 C5.93114263,3.25415558 6.31544795,3.44215766 6.65444376,3.69444677 C6.99288925,3.94710962 7.26859851,4.26106937 7.48102121,4.63707359 C7.69326047,5.01326464 7.81469728,5.4587885 7.84496477,5.97383201 L5.73651354,5.97383201 C5.59508185,5.05699477 5.06420854,4.59820237 4.14407705,4.59820237 Z" id="Shape"></path>
                            <path d="M9.14921813,5.42496308 C9.34127907,4.90506065 9.61442018,4.46177938 9.96845801,4.0962405 C10.322129,3.73032789 10.7469744,3.44682969 11.2424439,3.2461197 C11.7379134,3.04540969 12.2942848,2.94468096 12.9111911,2.94468096 C13.5277306,2.94468096 14.0864867,3.04540969 14.5870925,3.2461197 C15.0876983,3.44682969 15.514745,3.73014099 15.8685994,4.0962405 C16.2224538,4.46177938 16.4955949,4.90506065 16.6876558,5.42496308 C16.8795333,5.94523926 16.975839,6.52494353 16.975839,7.16351527 C16.975839,7.80208701 16.8795333,8.37936182 16.6876558,8.89403159 C16.4955949,9.40926199 16.2224538,9.84955318 15.8685994,10.215092 C15.5145616,10.5811915 15.0875149,10.8616996 14.5870925,11.0575507 C14.0864867,11.2528412 13.5277306,11.3509536 12.9111911,11.3509536 C12.2942848,11.3509536 11.7379134,11.2528412 11.2424439,11.0575507 C10.7469744,10.8616996 10.322129,10.5811915 9.96845801,10.215092 C9.61442018,9.84955318 9.34146251,9.40926199 9.14921813,8.89403159 C8.95734063,8.37936182 8.86140188,7.80208701 8.86140188,7.16351527 C8.86140188,6.52494353 8.95734063,5.94505239 9.14921813,5.42496308 Z M11.1059651,8.09829309 C11.1665,8.40253504 11.2703267,8.67538103 11.4168947,8.91739167 C11.5634627,9.15940234 11.7580917,9.35245022 12.0007819,9.4967222 C12.2434721,9.64118106 12.5468807,9.7129433 12.9110077,9.7129433 C13.2747678,9.7129433 13.5803777,9.64118106 13.8283876,9.4967222 C14.0760306,9.35263709 14.2734113,9.15940234 14.4201628,8.91739167 C14.5663639,8.67538103 14.6701905,8.40253504 14.7310924,8.09829309 C14.7916273,7.79442488 14.8220782,7.48270769 14.8220782,7.16351527 C14.8220782,6.84432285 14.7916273,6.5299893 14.7310924,6.22051469 C14.6701905,5.9116007 14.5665473,5.63875471 14.4201628,5.40178987 C14.2734113,5.164825 14.0762141,4.97140335 13.8283876,4.82227246 C13.5803777,4.67258094 13.2747678,4.5980155 12.9110077,4.5980155 C12.5466973,4.5980155 12.2432887,4.67258094 12.0007819,4.82227246 C11.7582752,4.97140335 11.5634627,5.164825 11.4168947,5.40178987 C11.2701432,5.63875471 11.1665,5.9116007 11.1059651,6.22051469 C11.0450632,6.5299893 11.0149792,6.84413595 11.0149792,7.16351527 C11.0151626,7.48270769 11.0452467,7.79442488 11.1059651,8.09829309 Z" id="Shape"></path>
                            <polygon id="Shape" points="20.5857408 0.116800507 20.5857408 11.1502436 18.4319801 11.1502436 18.4319801 0.116800507"></polygon>
                            <path d="M22.3298816,5.42496308 C22.522126,4.90506065 22.7950836,4.46177938 23.148938,4.0962405 C23.5027924,3.73032789 23.9280047,3.44682969 24.4231073,3.2461197 C24.9185769,3.04540969 25.4749482,2.94468096 26.0916711,2.94468096 C26.708394,2.94468096 27.2671501,3.04540969 27.767756,3.2461197 C28.2683618,3.44682969 28.6957753,3.73014099 29.0496297,4.0962405 C29.4029338,4.46177938 29.6762584,4.90506065 29.8686862,5.42496308 C30.0607471,5.94523926 30.1570527,6.52494353 30.1570527,7.16351527 C30.1570527,7.80208701 30.0607471,8.37936182 29.8686862,8.89403159 C29.6762584,9.40926199 29.4029338,9.84955318 29.0496297,10.215092 C28.6955919,10.5811915 28.2681784,10.8616996 27.767756,11.0575507 C27.2671501,11.2528412 26.708394,11.3509536 26.0916711,11.3509536 C25.4749482,11.3509536 24.9185769,11.2528412 24.4231073,11.0575507 C23.9280047,10.8616996 23.502609,10.5811915 23.148938,10.215092 C22.7950836,9.84955318 22.522126,9.40926199 22.3298816,8.89403159 C22.1378206,8.37936182 22.0418819,7.80208701 22.0418819,7.16351527 C22.0420653,6.52494353 22.1378206,5.94505239 22.3298816,5.42496308 Z M24.2869954,8.09829309 C24.3475304,8.40253504 24.4511736,8.67538103 24.597925,8.91739167 C24.7441261,9.15940234 24.9389386,9.35245022 25.1816288,9.4967222 C25.4245024,9.64118106 25.7277276,9.7129433 26.0916711,9.7129433 C26.4556147,9.7129433 26.7612246,9.64118106 27.0092345,9.4967222 C27.2568775,9.35263709 27.4546251,9.15940234 27.6011931,8.91739167 C27.7473942,8.67538103 27.8512208,8.40253504 27.9117558,8.09829309 C27.9726577,7.79442488 28.0027417,7.48270769 28.0027417,7.16351527 C28.0027417,6.84432285 27.9726577,6.5299893 27.9117558,6.22051469 C27.8512208,5.9116007 27.7473942,5.63875471 27.6011931,5.40178987 C27.4546251,5.164825 27.2568775,4.97140335 27.0092345,4.82227246 C26.7612246,4.67258094 26.4556147,4.5980155 26.0916711,4.5980155 C25.7277276,4.5980155 25.4245024,4.67258094 25.1816288,4.82227246 C24.9391221,4.97140335 24.7441261,5.164825 24.597925,5.40178987 C24.4509901,5.63875471 24.3475304,5.9116007 24.2869954,6.22051469 C24.2260935,6.5299893 24.1956426,6.84413595 24.1956426,7.16351527 C24.1956426,7.48270769 24.2260935,7.79442488 24.2869954,8.09829309 Z" id="Shape"></path>
                            <path d="M33.5994745,3.16090205 L33.5994745,4.6445488 L33.6302923,4.6445488 C33.7310005,4.39730548 33.8671124,4.16800274 34.0397288,3.95664055 C34.2117949,3.7456521 34.4084418,3.56568589 34.6313205,3.41599434 C34.8534655,3.26667658 35.0910194,3.15081048 35.344349,3.06820917 C35.5965781,2.98579472 35.85963,2.94468096 36.1329546,2.94468096 C36.2743863,2.94468096 36.4310434,2.97047051 36.6032929,3.02223648 L36.6032929,5.06204054 C36.5014841,5.04148366 36.3804142,5.02335621 36.2393493,5.00784511 C36.0971839,4.992334 35.9605216,4.98467189 35.8291791,4.98467189 C35.4351515,4.98467189 35.1014754,5.0517621 34.8285178,5.18538188 C34.5555601,5.31937542 34.3352495,5.50214486 34.1685032,5.73406393 C34.0023072,5.96560927 33.8828882,6.23602579 33.8120806,6.54512667 C33.7414565,6.85441439 33.7060527,7.18911792 33.7060527,7.54998479 L33.7060527,11.1504305 L31.5521086,11.1504305 L31.5521086,3.16090205 L33.5994745,3.16090205 Z" id="Shape"></path>
                            <path d="M42.3966726,4.72957958 C42.2856919,4.50812581 42.1361888,4.3251695 41.9494476,4.18089752 C41.7621561,4.0368124 41.5475321,3.93141164 41.304842,3.8645083 C41.0623352,3.79741809 40.8042361,3.76377954 40.5309116,3.76377954 C40.3184889,3.76377954 40.103498,3.78695276 39.885939,3.83329921 C39.66838,3.88001941 39.4689815,3.95682742 39.2871932,4.06521829 C39.1048545,4.17342228 38.9586534,4.31470417 38.8469389,4.49018527 C38.7355912,4.66529257 38.680376,4.88170056 38.680376,5.13922232 C38.680376,5.35525654 38.7337568,5.53839972 38.8394179,5.6877175 C38.9454458,5.83703526 39.0799068,5.96355357 39.2417002,6.06633803 C39.4033103,6.16930935 39.5799623,6.25434011 39.7729404,6.32124344 C39.9646345,6.38852055 40.1412865,6.44271598 40.3036303,6.48364287 L41.5776162,6.77704575 C41.8505739,6.81872017 42.1207799,6.89291185 42.3887847,7.00111584 C42.6567895,7.1096936 42.8943434,7.25116236 43.1018133,7.4260828 C43.3092831,7.601377 43.4784141,7.81797186 43.6099401,8.07530674 C43.7414661,8.33282849 43.8073208,8.6366967 43.8073208,8.98691134 C43.8073208,9.41954043 43.7110152,9.78806938 43.5189542,10.0917507 C43.3265264,10.3958058 43.0814515,10.6426753 42.7837295,10.8334806 C42.48454,11.0242859 42.149213,11.1605221 41.7751803,11.2431234 C41.4004138,11.3253509 41.031334,11.3664647 40.6673904,11.3664647 C39.7476258,11.3664647 39.0010279,11.1451978 38.4303483,10.7019165 C37.8589349,10.2593828 37.5324129,9.54848817 37.4515162,8.56979337 L38.4077852,8.56979337 C38.4479584,9.22910888 38.6829442,9.72602494 39.1129259,10.0609154 C39.5429076,10.3958058 40.0759821,10.5630641 40.7130668,10.5630641 C40.9456678,10.5630641 41.1856064,10.5376483 41.4343501,10.4856955 C41.6812594,10.4344901 41.9112923,10.3470299 42.1240818,10.2231279 C42.3361377,10.0997866 42.5109553,9.9428067 42.6472507,9.75200139 C42.7840964,9.56138295 42.8521524,9.32703441 42.8521524,9.04895578 C42.8521524,8.8119909 42.8037244,8.61389725 42.7081525,8.45392726 C42.61148,8.29433107 42.4825222,8.16015063 42.3205453,8.05213353 C42.1593022,7.94374266 41.9747623,7.85366611 41.7669255,7.78190387 C41.5598226,7.70958099 41.3505183,7.64809722 41.1377288,7.59614435 L39.9096027,7.31825257 C39.596105,7.23583815 39.3073715,7.14052892 39.0450533,7.03251182 C38.7823683,6.92430783 38.5519685,6.79068805 38.3549547,6.63071806 C38.157574,6.47130873 38.0031181,6.27527078 37.8917705,6.04335168 C37.7807897,5.81180635 37.7252076,5.52569184 37.7252076,5.18575564 C37.7252076,4.7839619 37.8136254,4.43897991 37.9906443,4.15062283 C38.1672963,3.86207884 38.3976961,3.63053353 38.6807429,3.45505243 C38.9641566,3.27975823 39.2802225,3.15137112 39.6287571,3.06858293 C39.9776587,2.98616849 40.3238086,2.9450547 40.6677573,2.9450547 C41.0625187,2.9450547 41.4286635,2.99663382 41.7669255,3.09979202 C42.1062882,3.20257648 42.4051108,3.36217267 42.6622927,3.57858067 C42.9202084,3.79480176 43.1251101,4.06297572 43.2768144,4.38198127 C43.4283352,4.70154746 43.5136345,5.07755165 43.5343631,5.51018073 L42.5788278,5.51018073 C42.5691056,5.21098456 42.5082037,4.95122021 42.3966726,4.72957958 Z" id="Shape"></path>
                            <path d="M46.0672929,3.17641316 L46.0672929,4.69089525 L46.0973769,4.69089525 C46.3198888,4.13473796 46.6821814,3.70472521 47.1822369,3.40067013 C47.6828427,3.09698882 48.2509542,2.94468096 48.8884057,2.94468096 C49.4853172,2.94468096 50.0037166,3.0581176 50.4434206,3.28443026 C50.883308,3.51130356 51.2498197,3.81778811 51.5425889,4.20407073 C51.8357248,4.59054026 52.0531004,5.03849356 52.1950824,5.54849129 C52.3365141,6.05830215 52.407872,6.59689264 52.407872,7.16351527 C52.407872,7.73013787 52.3365141,8.26816775 52.1950824,8.77816548 C52.0532838,9.28816322 51.8357248,9.73592964 51.5425889,10.1227729 C51.2498197,10.5086818 50.883308,10.8127369 50.4434206,11.0345644 C50.0039001,11.2556444 49.4853172,11.3662778 48.8884057,11.3662778 C48.6053589,11.3662778 48.3223121,11.330023 48.0388984,11.2582607 C47.7562184,11.1859379 47.4927996,11.0781076 47.2502929,10.9336488 C47.0077861,10.7899374 46.7931621,10.6097843 46.6056872,10.3930026 C46.4183957,10.1769683 46.2742124,9.92411862 46.1733208,9.63557463 L46.1432367,9.63557463 L46.1432367,14.0861412 L45.1877015,14.0861412 L45.1877015,3.17641316 L46.0672929,3.17641316 Z M51.3074197,5.93477392 C51.2111141,5.52793441 51.0601435,5.164825 50.8526737,4.84525881 C50.6452038,4.52587949 50.3797672,4.26592827 50.0565471,4.06503142 C49.7322265,3.86432143 49.3431517,3.76359267 48.8882223,3.76359267 C48.3623018,3.76359267 47.9229647,3.85628553 47.5683766,4.04204507 C47.2147056,4.22743085 46.9320257,4.47467416 46.719603,4.78340124 C46.5075472,5.09250212 46.3576773,5.45355584 46.2718277,5.86506738 C46.1861615,6.27751335 46.1432367,6.70995554 46.1432367,7.16332837 C46.1432367,7.57540058 46.1916647,7.98466955 46.2872366,8.39169596 C46.3831753,8.79853549 46.5398325,9.16145801 46.7575749,9.4810242 C46.9751339,9.80059039 47.2578139,10.0605416 47.6070823,10.2614385 C47.9556169,10.4619616 48.382847,10.5625035 48.8882223,10.5625035 C49.3431517,10.5625035 49.7324099,10.4619616 50.0565471,10.2614385 C50.3797672,10.0605416 50.6452038,9.80059039 50.8526737,9.4810242 C51.0601435,9.16145801 51.2109306,8.79853549 51.3074197,8.39169596 C51.4040922,7.98448266 51.4521533,7.57540058 51.4521533,7.16332837 C51.4521533,6.75106933 51.4042756,6.34198722 51.3074197,5.93477392 Z" id="Shape"></path>
                            <path d="M54.0912944,4.41281659 C54.2532713,4.07269352 54.4724812,3.79442799 54.7509421,3.5782069 C55.029036,3.36179891 55.3553745,3.20220271 55.7286735,3.09941825 C56.10344,2.99644693 56.5176459,2.94468096 56.9725753,2.94468096 C57.316524,2.94468096 57.6601058,2.97831948 58.0040545,3.04540969 C58.3476363,3.11231303 58.656548,3.23845757 58.9295057,3.42365647 C59.2024634,3.60922912 59.4246084,3.8693672 59.5970413,4.20407073 C59.7687405,4.53896116 59.8553238,4.97439345 59.8553238,5.50980697 L59.8553238,9.74359175 C59.8553238,10.1354808 60.042065,10.331145 60.4160977,10.331145 C60.5270785,10.331145 60.6281536,10.310775 60.7191394,10.2691006 L60.7191394,11.0885729 C60.6081587,11.1093167 60.508918,11.1242672 60.4232519,11.1349194 C60.3375857,11.1451978 60.2289897,11.1502436 60.098014,11.1502436 C59.8555073,11.1502436 59.6597775,11.1166051 59.5135764,11.0497017 C59.3666415,10.9831722 59.2530926,10.8871154 59.1725628,10.7637741 C59.091666,10.6402459 59.0382852,10.4935445 59.013154,10.3231092 C58.987656,10.1536083 58.9748152,9.96579302 58.9748152,9.75947663 L58.9447312,9.75947663 C58.7724817,10.0169984 58.5982143,10.2459274 58.4211954,10.4473849 C58.2441765,10.6477211 58.0478965,10.8159138 57.8303375,10.9493467 C57.6124116,11.0839009 57.364952,11.1863116 57.0861243,11.2584476 C56.8083972,11.3302098 56.4774727,11.3664647 56.0929839,11.3664647 C55.7286735,11.3664647 55.3874764,11.3227346 55.0690258,11.2350875 C54.7509421,11.1476273 54.4724812,11.0087748 54.2349273,10.8177827 C53.9977403,10.6277249 53.8100819,10.3857142 53.6734197,10.0917507 C53.5373077,9.79797405 53.4688849,9.45056264 53.4688849,9.04895578 C53.4688849,8.49242472 53.5903217,8.05736619 53.8331953,7.74303265 C54.075702,7.42888602 54.3967208,7.18930482 54.7955178,7.02428906 C55.1950486,6.85983396 55.6457589,6.74396785 56.1461813,6.67687762 C56.6469706,6.60997431 57.1543637,6.54531354 57.6703784,6.48382974 C57.8728954,6.46327286 58.0497309,6.43729644 58.2014352,6.40646109 C58.3533229,6.37525201 58.4791622,6.32143034 58.5807876,6.24406167 C58.6814958,6.16650612 58.7600078,6.06147912 58.8154065,5.92729871 C58.8709886,5.79349203 58.8988713,5.61819783 58.8988713,5.40197674 C58.8988713,5.07250587 58.8454905,4.80208932 58.7394626,4.59072713 C58.6330678,4.37955181 58.4861329,4.2122935 58.2999421,4.08820463 C58.1122837,3.96505016 57.8958253,3.88001941 57.6478154,3.83348608 C57.3994386,3.78695276 57.1343688,3.76396641 56.8516888,3.76396641 C56.2441379,3.76396641 55.7495856,3.91085473 55.3649134,4.2044445 C54.9804246,4.49803424 54.7788248,4.96953455 54.7579128,5.61819783 L53.8027444,5.61819783 C53.8333787,5.15473342 53.9285837,4.75275279 54.0912944,4.41281659 Z M58.8689707,6.79236998 C58.8080689,6.90618039 58.6915849,6.98840794 58.5200692,7.03998704 C58.3478197,7.09156616 58.1961154,7.12726038 58.0647729,7.14837793 C57.6602892,7.22032704 57.2431483,7.28461404 56.8137169,7.34123891 C56.3837352,7.39767691 55.9924592,7.48289456 55.637871,7.59595746 C55.284567,7.70939412 54.9936323,7.87179355 54.7658007,8.08315574 C54.5390697,8.29433107 54.4244201,8.59539604 54.4244201,8.98672447 C54.4244201,9.23396778 54.4728481,9.45299208 54.5695206,9.64361052 C54.664909,9.83441581 54.7938669,9.99905781 54.9560272,10.1379103 C55.1169035,10.2771365 55.304195,10.3830979 55.5168011,10.4546732 C55.7288569,10.527183 55.9464159,10.5628772 56.1696616,10.5628772 C56.5332382,10.5628772 56.8823232,10.5064392 57.2158158,10.3931894 C57.5489416,10.2801266 57.8402432,10.1149239 58.0875194,9.89851594 C58.3358962,9.68210795 58.53291,9.4197273 58.6798448,9.11062645 C58.8260459,8.80171246 58.8994217,8.45187159 58.8994217,8.05998253 L58.8994217,6.79255685 L58.8689707,6.79255685 L58.8689707,6.79236998 Z" id="Shape"></path>
                            <path d="M62.6459858,3.17641316 L62.6459858,5.04652943 L62.6764367,5.04652943 C62.9189434,4.39749238 63.2955443,3.89758619 63.8064227,3.54755845 C64.3165674,3.19734381 64.9257693,3.03756071 65.6340284,3.06839604 L65.6340284,4.04223194 C65.198727,4.02148819 64.8046994,4.0807294 64.4502946,4.21976871 C64.0962568,4.35880806 63.7906469,4.55746234 63.5327313,4.81442346 C63.2748157,5.07250587 63.0756006,5.37861663 62.9339855,5.73406393 C62.7921869,6.08932437 62.7211959,6.4785971 62.7211959,6.90094772 L62.7211959,11.1504305 L61.7656606,11.1504305 L61.7656606,3.17641316 L62.6459858,3.17641316 Z" id="Shape"></path>
                            <polygon id="Shape" points="67.4988722 0.116800507 67.4988722 7.03980017 71.8368446 3.17622627 73.1115643 3.17622627 69.7742532 6.1278218 73.3384787 11.1502436 72.1404366 11.1502436 69.0463661 6.8076942 67.4988722 8.1214663 67.4988722 11.1502436 66.5437038 11.1502436 66.5437038 0.116800507"></polygon>
                        </g>
                        <path d="M21.3228579,18.5376591 C21.3228579,20.4222791 19.8387982,21.9500008 18.0080403,21.9500008 L3.31481757,21.9500008 C1.48405971,21.9500008 0,20.4220894 0,18.5376591 L0,3.41215204 C0,1.52753208 1.48405971,0 3.31481757,0 L18.0080403,0 C19.8387982,0 21.3228579,1.52772172 21.3228579,3.41215204 L21.3228579,18.5376591 Z" id="Shape" fill="#EC613E"></path>
                    </g>
                </g>
            </g>
        </g>
    </g>
</svg>
