<svg xmlns="http://www.w3.org/2000/svg" width="612" height="523"><g fill="#FFF"><path d="M409.168 405.799c-29.908 20.759-65 31.757-101.481 31.775l-2.455-.043a179.677 179.677 0 0 1-14.492-.718l-5.875-.739c-3.782-.472-7.564-1.017-11.236-1.695-1.604-.294-3.195-.686-4.78-1.077l-1.928-.428c-3.611-.857-7.179-1.695-10.692-2.748l-5.03-1.659c-4.015-1.37-8.072-2.754-12.02-4.375l-1.089 2.576-1.542-3.739c-4.584-2.032-9.113-4.138-14.131-6.787-14.865-8.157-28.421-18.236-40.942-30.71a158.65 158.65 0 0 1-10.576-11.572l-2.185 1.816.08-4.468c-22.143-27.503-35.111-60.141-38.024-94.951 29.872-.82 56.231-2.962 58.764-7.999.912-1.812 3.06-6.046-20.465-43.832-10.924-17.595-57.822-88.63-70.233-88.63-13.445.398-69.829 90.564-83.109 117.449-6.34 12.876-5.741 15.49-4.486 17.191 2.962 3.996 30.606 5.514 56.769 6.041 2.748 43.14 16.964 84.413 41.671 119.921l2.809-.777-1.793 2.595c2.087 2.944 4.345 5.716 6.591 8.464l5.539 7.045c4.37 5.244 9.015 10.221 13.77 15.079l1.353 1.391a236.587 236.587 0 0 0 53.862 40.146l1.695.979c5.698 2.999 11.53 5.733 17.479 8.348l4.388 1.946c5.074 2.11 10.263 3.903 16.585 6.01 2.105.74 4.229 1.438 6.395 2.104 4.584 1.371 9.272 2.497 14.009 3.61l2.179.526c2.405.545 4.798 1.096 8.685 1.896.838.232 1.658.404 2.436.545 3.55.644 7.142 1.054 10.729 1.463l7.454.937c8.011.771 16.004 1.279 23.966 1.279 49.138 0 96.604-14.922 137.26-43.27 14.131-9.828 17.576-29.26 7.687-43.286-9.564-13.523-29.931-17.226-43.591-7.629zM601.062 257.554c-2.425-4.736-26.279-6.904-54.192-7.822-2.203-44.338-16.506-86.812-41.751-123.17l-2.338 1.561 1.285-3.513c-3.237-4.584-6.714-8.856-10.532-13.464l-1.212-1.598C467.939 80.165 437.798 57.693 402.7 42.65l-2.896-1.267c-5.539-2.264-11.192-4.272-16.892-6.163l-2.166-.722c-1.304-.447-2.656-.918-3.997-1.304-4.969-1.463-9.987-2.711-15.098-3.862l-2.345-.544c-2.025-.471-4.058-.955-6.126-1.365l-4.095-.937c-2.405-.428-4.798-.679-7.24-.937l-12.001-1.481c-6.396-.587-12.718-.82-20.581-1.016l-2.516-.037c-49.278.037-96.684 14.945-137.027 43.036-6.867 4.761-11.451 11.897-12.913 20.092-1.444 8.195.385 16.444 5.189 23.274 9.523 13.519 29.933 17.148 43.624 7.589 29.866-20.777 64.921-31.757 103.006-31.757h.036c5.27.037 10.459.288 15.569.777l4.719.587c4.254.508 8.428 1.114 12.546 1.91l5.404 1.249c4.058.881 8.071 1.854 12.001 3.005l3.738 1.273a175.57 175.57 0 0 1 14.615 5.44c25.832 11.004 48.966 28.25 67.246 50.251 23.47 28.385 36.867 62.779 39.425 99.572-27.393.429-58.018 1.859-61.182 6.107-1.248 1.713-1.836 4.309 4.486 17.148 13.305 26.939 69.688 117.111 83.146 117.479h.135c12.308 0 58.194-69.566 69.816-88.195 23.813-38.171 21.665-42.451 20.736-44.298z"/></g></svg>