<?xml version="1.0" encoding="UTF-8"?>
<svg width="68px" height="16px" viewBox="0 0 68 16" version="1.1" xmlns="http://www.w3.org/2000/svg" xmlns:xlink="http://www.w3.org/1999/xlink">
    <!-- Generator: Sketch 50.2 (55047) - http://www.bohemiancoding.com/sketch -->
    <title>sketch-logo</title>
    <desc>Created with Sketch.</desc>
    <defs></defs>
    <g id="Page-1" stroke="none" stroke-width="1" fill="none" fill-rule="evenodd">
        <g id="Desktop-HD" transform="translate(-666.000000, -418.000000)" fill-rule="nonzero">
            <g id="Main">
                <g id="logos" transform="translate(455.000000, 413.000000)">
                    <g id="sketch-logo" transform="translate(211.000000, 5.000000)">
                        <path d="M23.3003503,10.5148603 L23.2873486,10.3319264 L23.112967,10.3319264 L22.0306274,10.3319264 L21.8348624,10.3319264 L21.8428787,10.537693 C21.9321918,12.830194 23.4013794,14.3486239 26.0142387,14.3486239 C28.5062738,14.3486239 30.2007889,12.9865967 30.2007889,10.9249427 C30.2007889,9.81015708 29.8331406,9.02126155 29.1325724,8.48249889 C28.5936722,8.06806503 27.9493235,7.83446286 26.8808436,7.59074949 C26.8094528,7.57446571 26.7350407,7.5577981 26.6458701,7.53805897 C26.5929195,7.52633761 26.4029329,7.48450056 26.4130156,7.48672422 C24.4725836,7.05877967 23.8570755,6.68702635 23.8570755,5.57988858 C23.8570755,4.43502657 24.7470582,3.7059569 26.2397262,3.7059569 C27.691977,3.7059569 28.6097887,4.63901513 28.6525298,6.10779134 L28.658106,6.2994151 L28.840348,6.2994151 L29.9076552,6.2994151 L30.0999478,6.2994151 L30.0955115,6.09718254 C30.0452877,3.80771387 28.5850393,2.26690387 26.2246937,2.26690387 C23.9113522,2.26690387 22.383891,3.73124746 22.383891,5.62732989 C22.383891,6.73896376 22.7511499,7.51309831 23.4528229,8.03032264 C23.9873617,8.42434735 24.6065953,8.63323392 25.6989497,8.86524279 C25.7501081,8.87610859 25.8034839,8.88732516 25.8670285,8.90058602 C25.9063625,8.90879441 25.9507866,8.91803525 26.0341575,8.93537362 C27.0677094,9.15049615 27.5237455,9.28327363 27.939781,9.53776957 C28.4562479,9.85370089 28.7125718,10.30498 28.7125718,11.0040115 C28.7125718,12.217681 27.7425456,12.9095708 26.0443037,12.9095708 C24.4185272,12.9095708 23.4095882,12.0518538 23.3003503,10.5148603 Z M33.2448693,2.06923175 L33.2448693,1.87155963 L33.0569631,1.87155963 L31.9896559,1.87155963 L31.8017496,1.87155963 L31.8017496,2.06923175 L31.8017496,13.9295589 L31.8017496,14.1272309 L31.9896559,14.1272309 L33.0569631,14.1272309 L33.2448693,14.1272309 L33.2448693,13.9295589 L33.2448693,11.8148579 L34.7639422,10.2585228 L37.4767325,14.048464 L37.533113,14.1272309 L37.6268419,14.1272309 L38.9497015,14.1272309 L39.3282831,14.1272309 L39.0993632,13.810031 L35.7863538,9.21940082 L38.8417355,6.02045712 L39.1643555,5.68267809 L38.7091816,5.68267809 L37.2810944,5.68267809 L37.2028706,5.68267809 L37.1477544,5.74107145 L33.2448693,9.87602072 L33.2448693,2.06923175 Z M46.7290182,10.4268089 L46.9055469,10.4268089 L46.9165584,10.2414673 C46.9184952,10.2088693 46.9213674,10.1549854 46.9242377,10.0900669 C46.9265097,10.0386793 46.9283836,9.98860464 46.929723,9.94126126 C46.9311744,9.88995675 46.9319569,9.84328743 46.9319569,9.80216506 C46.9319569,7.32104172 45.369776,5.49291286 43.0610892,5.49291286 C40.75674,5.49291286 39.1150589,7.43890167 39.1150589,9.89704763 C39.1150589,12.4265229 40.6823291,14.3169963 43.0761217,14.3169963 C44.8861384,14.3169963 46.284462,13.187233 46.7882748,11.4735757 L46.8635615,11.2174974 L46.6087582,11.2174974 L45.4963535,11.2174974 L45.3636447,11.2174974 L45.3192655,11.349066 C45.0028902,12.2870082 44.1463299,12.9095708 43.0911541,12.9095708 C41.7116716,12.9095708 40.750036,11.9129811 40.5768017,10.4268089 L46.7290182,10.4268089 Z M40.6205293,9.11426603 C40.8641137,7.78358211 41.7944262,6.90033835 43.0610892,6.90033835 C44.3666213,6.90033835 45.2675966,7.75459838 45.4646693,9.11426603 L40.6205293,9.11426603 Z M51.6671931,7.02684851 L51.8550993,7.02684851 L51.8550993,6.82917638 L51.8550993,5.88035021 L51.8550993,5.68267809 L51.6671931,5.68267809 L50.0962972,5.68267809 L50.0962972,3.58735363 L50.0962972,3.3896815 L49.908391,3.3896815 L48.8410838,3.3896815 L48.6531777,3.3896815 L48.6531777,3.58735363 L48.6531777,5.68267809 L47.3829317,5.68267809 L47.1950256,5.68267809 L47.1950256,5.88035021 L47.1950256,6.82917638 L47.1950256,7.02684851 L47.3829317,7.02684851 L48.6531777,7.02684851 L48.6531777,11.7630724 C48.6531777,13.3167739 49.4192301,14.1588586 50.8253733,14.1588586 C51.0708035,14.1588586 51.2823789,14.1434022 51.4600394,14.1174447 C51.5698172,14.1014053 51.6456258,14.0847912 51.68742,14.0725783 L51.8250344,14.0323653 L51.8250344,13.8821177 L51.8250344,12.8700363 L51.8250344,12.624775 L51.5972113,12.6768759 C51.5881051,12.6789583 51.5696583,12.6829071 51.5433087,12.6881045 C51.4986611,12.6969109 51.4489294,12.7057481 51.3955758,12.7140021 C51.2589411,12.7351397 51.123421,12.7486874 50.9986538,12.7510651 C50.98582,12.7513098 50.9731545,12.7514331 50.9606657,12.7514331 C50.3446839,12.7514331 50.0962972,12.4470665 50.0962972,11.6840036 L50.0962972,7.02684851 L51.6671931,7.02684851 Z M56.1543931,14.3169963 C58.1518915,14.3169963 59.562263,12.9872904 59.9164542,11.1056641 L59.9608912,10.8695945 L59.7321271,10.8695945 L58.6497875,10.8695945 L58.5053055,10.8695945 L58.4681879,11.0164844 C58.1647649,12.2172568 57.3412076,12.9095708 56.1543931,12.9095708 C54.6732857,12.9095708 53.6514826,11.680492 53.6514826,9.91286143 C53.6514826,8.13155739 54.671511,6.90033835 56.1543931,6.90033835 C57.3412076,6.90033835 58.1647649,7.5926523 58.4681879,8.79342474 L58.5053055,8.94031461 L58.6497875,8.94031461 L59.7321271,8.94031461 L59.9608912,8.94031461 L59.9164542,8.70424509 C59.562263,6.82261872 58.1518915,5.49291286 56.1543931,5.49291286 C53.8340256,5.49291286 52.1933304,7.45265511 52.1933304,9.91286143 C52.1933304,12.3595364 53.8362848,14.3169963 56.1543931,14.3169963 Z M62.6183664,2.06923175 L62.6183664,1.87155963 L62.4304602,1.87155963 L61.363153,1.87155963 L61.1752468,1.87155963 L61.1752468,2.06923175 L61.1752468,13.9295589 L61.1752468,14.1272309 L61.363153,14.1272309 L62.4304602,14.1272309 L62.6183664,14.1272309 L62.6183664,13.9295589 L62.6183664,9.16961426 C62.6183664,7.71935081 63.4574947,6.86871081 64.7304321,6.86871081 C65.9462119,6.86871081 66.5568803,7.60911135 66.5568803,9.01147656 L66.5568803,13.9295589 L66.5568803,14.1272309 L66.7447865,14.1272309 L67.8120938,14.1272309 L68,14.1272309 L68,13.9295589 L68,8.79008381 C68,6.80915344 66.8339958,5.49291286 64.910822,5.49291286 C63.9214119,5.49291286 63.1261179,5.87424145 62.6183664,6.42154481 L62.6183664,2.06923175 Z" id="Shape" fill="#000000"></path>
                        <polygon id="Shape" fill="#FDB300" points="3.9472894 0.513495247 9.04587156 0 14.1444537 0.513495247 18.0917431 5.56141462 9.04587156 15.5963303 0 5.56141462"></polygon>
                        <g id="Group" transform="translate(0.000000, 5.614679)">
                            <polygon id="Shape" fill="#EA6C00" points="3.64652416 0 9.00270306 9.90105584 0 0"></polygon>
                            <polygon id="Shape" fill="#EA6C00" transform="translate(13.504182, 4.950528) scale(-1, 1) translate(-13.504182, -4.950528) " points="12.6493547 0 18.0055335 9.90105584 9.00283057 0"></polygon>
                            <polygon id="Shape" fill="#FDAD00" points="3.64652416 0 14.3588819 0 9.00270306 9.90105584"></polygon>
                        </g>
                        <polygon id="Shape" fill="#FDD231" points="8.73394495 0 3.41477547 0.518331571 3.11926606 5.6146789"></polygon>
                        <polygon id="Shape" fill="#FDD231" transform="translate(11.541284, 2.807339) scale(-1, 1) translate(-11.541284, -2.807339) " points="14.3486239 0 9.02945433 0.518331571 8.73394495 5.6146789"></polygon>
                        <polygon id="Shape" fill="#FDAD00" transform="translate(15.284404, 3.119266) scale(-1, 1) translate(-15.284404, -3.119266) " points="13.7247706 5.6146789 16.8440367 0.623853211 16.6201981 5.6146789"></polygon>
                        <polygon id="Shape" fill="#FDAD00" points="0 5.6146789 3.11926606 0.623853211 2.89542741 5.6146789"></polygon>
                        <polygon id="Shape" fill="#FEEEB7" points="8.11009177 0 3.11926606 5.6146789 13.1009174 5.6146789"></polygon>
                    </g>
                </g>
            </g>
        </g>
    </g>
</svg>